Coordinates
version=1
nRows=4
nColumns=107
inDegrees=yes

Units are S.I. units (second, meters, Newtons, ...)
If the header above contains a line with 'inDegrees', this indicates whether rotational values are in degrees (yes) or radians (no).

endheader
time	sternoclavicular_r2	sternoclavicular_r3	unrotscap_r3	unrotscap_r2	acromioclavicular_r2	acromioclavicular_r3	acromioclavicular_r1	unrothum_r1	unrothum_r3	unrothum_r2	elv_angle	shoulder_elv	shoulder1_r2	shoulder_rot	elbow_flexion	pro_sup	deviation	flexion	proximal_distal_r1	proximal_distal_r3	cmc_flexion	cmc_abduction	mp_flexion	ip_flexion	mcp2_flexion	mcp2_abduction	pm2_flexion	md2_flexion	mcp3_flexion	mcp3_abduction	pm3_flexion	md3_flexion	mcp4_flexion	mcp4_abduction	pm4_flexion	md4_flexion	mcp5_flexion	mcp5_abduction	pm5_flexion	md5_flexion	bicpt_tx	bicpt_ty	bicpt_tz	bicpt2_tx	bicpt2_ty	bicpt2_tz	ptpt_tx	ptpt_ty	ptpt_tz	FCUpt_tx	FCUpt_ty	FCUpt_tz	EDCpt_tx	EDCpt_ty	EDCpt_tz	APLpt_tx	APLpt_ty	APLpt_tz	FPLpt_tx	FPLpt_ty	FPLpt_tz	FPLpt2_tx	FPLpt2_ty	FPLpt2_tz	PEC1pt2_tx	PEC1pt2_ty	PEC1pt2_tz	PEC1pt3_tx	PEC1pt3_ty	PEC1pt3_tz	PEC2pt2_tx	PEC2pt2_ty	PEC2pt2_tz	PEC2pt3_tx	PEC2pt3_ty	PEC2pt3_tz	PEC3pt2_tx	PEC3pt2_ty	PEC3pt2_tz	PEC3pt3_tx	PEC3pt3_ty	PEC3pt3_tz	DELT2pt2a_tx	DELT2pt2a_ty	DELT2pt2a_tz	DELT2pt2_tx	DELT2pt2_ty	DELT2pt2_tz	LAT1pt2_tx	LAT1pt2_ty	LAT1pt2_tz	LAT1pt3_tx	LAT1pt3_ty	LAT1pt3_tz	LAT2pt2_tx	LAT2pt2_ty	LAT2pt2_tz	LAT2pt3_tx	LAT2pt3_ty	LAT2pt3_tz	LAT3pt2_tx	LAT3pt2_ty	LAT3pt2_tz	LAT3pt3_tx	LAT3pt3_ty	LAT3pt3_tz
      0.76666667	     -0.31768095	      0.13455466	     -0.13455466	      0.31768095	     -0.06432393	      0.51984338	      0.23366602	     -0.23366602	     -0.51984338	      0.06432393	    100.68530977	     75.21378893	     -1.75729016	    -33.01784842	     29.61392569	     74.05189191	      0.29678712	     -0.78283534	      0.33068612	     -0.39141767	     38.63977152	    -15.96584392	     -1.91924572	      8.79114022	     98.30329666	     12.88060170	     82.20377576	     70.67160593	     94.57709171	      1.37259577	     83.96323053	     54.11202029	     95.68511927	    -13.38744069	     92.74248525	     43.48397623	     96.72087111	    -14.13829914	     95.42571204	      5.44543664	      0.00087954	     -0.03099421	     -0.00484672	      0.01531167	     -0.01824477	     -0.00302205	      0.00207840	     -0.06843803	     -0.00601528	      0.01138748	     -0.18262208	     -0.00019154	     -0.00888621	      0.00294438	     -0.00041225	      0.00028773	      0.00011509	      0.00057547	      0.00036830	      0.00110490	      0.00062151	     -0.00001183	     -0.00013655	     -0.00016386	      0.00246534	      0.00864959	      0.00601711	     -0.00806460	      0.01947203	     -0.01846918	      0.00246534	      0.00864959	      0.00601711	      0.00054321	      0.01805132	     -0.00948530	      0.00391169	      0.00480993	      0.01587834	      0.00000000	      0.00756431	      0.00000000	     -0.00706175	     -0.03263445	     -0.00623588	      0.02015492	     -0.00086135	     -0.00902197	     -0.00087749	      0.01470849	     -0.00601711	      0.00242356	      0.02122702	     -0.01754990	     -0.00589175	      0.01274457	     -0.00539033	     -0.01228493	      0.02690984	     -0.03012733	     -0.02306558	      0.01424885	     -0.00722889	     -0.01529348	      0.03108839	     -0.03764871
      0.80000000	     -0.31818438	      0.13476788	     -0.13476788	      0.31818438	     -0.06442586	      0.52066717	      0.23403631	     -0.23403631	     -0.52066717	      0.06442586	    100.80873909	     75.33297965	     -1.75944441	    -32.93858132	     29.32388160	     74.16773481	      0.29710910	     -0.78281978	      0.33096613	     -0.39140989	     38.62183934	    -15.94824072	     -1.94655302	      8.78198750	     98.18603108	     12.88723895	     82.15141832	     70.65420784	     94.49041784	      1.38217868	     83.93446555	     54.10769556	     95.58866652	    -13.37938299	     92.70512039	     43.48054968	     96.59402881	    -14.12416405	     95.41688974	      5.44052633	      0.00086994	     -0.03096097	     -0.00484136	      0.01530284	     -0.01816598	     -0.00300414	      0.00206984	     -0.06844356	     -0.00602461	      0.01140036	     -0.18261855	     -0.00018938	     -0.00890011	      0.00295031	     -0.00041523	      0.00028774	      0.00011510	      0.00057548	      0.00036830	      0.00110491	      0.00062151	     -0.00001184	     -0.00013685	     -0.00016422	      0.00246925	      0.00866330	      0.00602664	     -0.00807738	      0.01950289	     -0.01849845	      0.00246925	      0.00866330	      0.00602664	      0.00054407	      0.01807993	     -0.00950033	      0.00391624	      0.00481755	      0.01588963	      0.00000000	      0.00758846	      0.00000000	     -0.00707294	     -0.03268617	     -0.00625594	      0.02012293	     -0.00085858	     -0.00898063	     -0.00087889	      0.01473180	     -0.00602664	      0.00242740	      0.02126066	     -0.01757771	     -0.00590109	      0.01276477	     -0.00539887	     -0.01230440	      0.02695249	     -0.03017507	     -0.02310213	      0.01427143	     -0.00724034	     -0.01531772	      0.03113766	     -0.03770837
      0.83333333	     -0.31492552	      0.13338759	     -0.13338759	      0.31492552	     -0.06376601	      0.51533448	      0.23163930	     -0.23163930	     -0.51533448	      0.06376601	    100.99775739	     74.56141624	     -1.76274340	    -35.34940861	     30.80650407	     78.54700013	      0.32793594	     -0.65754239	      0.35703141	     -0.32877120	     38.88538705	    -16.24151695	     -3.91005114	      9.01971285	     93.29749692	     13.08889093	     80.17213417	     66.40908702	     90.87669020	      2.29576571	     83.15742551	     53.46506861	     91.65625526	    -13.18595283	     90.98478803	     44.26120652	     90.27891645	    -14.06155845	     96.92318145	      5.37338761	      0.00091898	     -0.03113090	     -0.00486873	      0.01494678	     -0.01856874	     -0.00231341	      0.00174626	     -0.06865279	     -0.00637738	      0.01189040	     -0.18248224	     -0.00010057	     -0.00942562	      0.00317759	     -0.00053296	      0.00031068	      0.00012427	      0.00062136	      0.00039767	      0.00119300	      0.00067106	     -0.00001164	     -0.00013213	     -0.00015856	      0.00244396	      0.00857457	      0.00596492	     -0.00799465	      0.01930314	     -0.01830899	      0.00244396	      0.00857457	      0.00596492	      0.00053850	      0.01789476	     -0.00940303	      0.00388669	      0.00476821	      0.01581596	      0.00000000	      0.00743280	      0.00000000	     -0.00700049	     -0.03235140	     -0.00612667	      0.02105822	     -0.00094349	     -0.01026809	     -0.00086988	      0.01458091	     -0.00596492	      0.00240254	      0.02104291	     -0.01739768	     -0.00584065	      0.01263403	     -0.00534357	     -0.01217837	      0.02667644	     -0.02986601	     -0.02286552	      0.01412526	     -0.00716619	     -0.01516083	      0.03081874	     -0.03732216
      0.86666667	     -0.31637939	      0.13400338	     -0.13400338	      0.31637939	     -0.06406039	      0.51771354	      0.23270867	     -0.23270867	     -0.51771354	      0.06406039	    101.38926985	     74.90563247	     -1.76957659	    -35.17182656	     29.81875092	     78.72959992	      0.32745041	     -0.65704684	      0.35663290	     -0.32852342	     38.81384742	    -16.23067969	     -3.96206020	      9.00071977	     92.92007510	     13.10668177	     80.06542099	     66.38457401	     90.51418902	      2.32988454	     83.06390394	     53.45267541	     91.29562034	    -13.16089601	     90.80619707	     44.23970115	     89.94337987	    -14.05023026	     96.83809239	      5.36094328	      0.00088631	     -0.03101768	     -0.00485050	      0.01493097	     -0.01830041	     -0.00228402	      0.00173277	     -0.06866152	     -0.00639209	      0.01191096	     -0.18247644	     -0.00009655	     -0.00944753	      0.00318720	     -0.00053809	      0.00031071	      0.00012429	      0.00062143	      0.00039771	      0.00119314	      0.00067114	     -0.00001169	     -0.00013339	     -0.00016007	      0.00245524	      0.00861416	      0.00599246	     -0.00803156	      0.01939225	     -0.01839351	      0.00245524	      0.00861416	      0.00599246	      0.00054099	      0.01797737	     -0.00944644	      0.00389990	      0.00479022	      0.01584901	      0.00000000	      0.00750204	      0.00000000	     -0.00703281	     -0.03250075	     -0.00618417	      0.02099180	     -0.00093719	     -0.01017131	     -0.00087390	      0.01464822	     -0.00599246	      0.00241363	      0.02114005	     -0.01747800	     -0.00586761	      0.01269235	     -0.00536824	     -0.01223460	      0.02679959	     -0.03000389	     -0.02297108	      0.01419047	     -0.00719927	     -0.01523082	      0.03096102	     -0.03749446
